<svg width="342.6484123052415" height="327.359375" viewBox="0 0 300 286.61394296061565" class="navbar-brandlogo">
    <defs id="SvgjsDefs1244">
    <linearGradient id="SvgjsLinearGradient1249">
    <stop id="SvgjsStop1250" stop-color="#ef4136" offset="0"></stop>
    <stop id="SvgjsStop1251" stop-color="#fbb040" offset="1"></stop>
    </linearGradient><linearGradient id="SvgjsLinearGradient1252">
    <stop id="SvgjsStop1253" stop-color="#ef4136" offset="0">
    </stop><stop id="SvgjsStop1254" stop-color="#fbb040" offset="1">
    </stop></linearGradient></defs>
    <g id="SvgjsG1245" featurekey="symbolFeature-0" transform="matrix(1.6129032258064515,0,0,1.6129032258064515,98.38709677419355,-1.6129032258064515)" fill="url(#SvgjsLinearGradient1249)"><g xmlns="http://www.w3.org/2000/svg"><path d="M60.176,17.708L57,17.219V5H32V1h-6v4H1v40h10.685l-5,18h8.075l2.222-8h24.036l2.222,8h8.075l-5-18H57V24.781l3.176-0.489   C61.812,24.041,63,22.656,63,21S61.812,17.959,60.176,17.708z M28,3h2v2h-2V3z M13.24,61H9.315l4.444-16h3.925L13.24,61z    M17.538,53l0.556-2H34v-2H18.649l1.111-4h18.48l1.111,4H36v2h3.907l0.556,2H17.538z M48.685,61H44.76l-4.444-16h3.925L48.685,61z    M55,43h-9.24h-8.075H20.315H12.24H3V7h23h6h23v9.911l-2.371-0.365C50.271,16.184,47.867,16,45.482,16H20.204   c-0.655-0.272-2.72-1-6.204-1c-5.418,0-9.605,5.156-9.781,5.375L3.72,21l0.499,0.625C4.395,21.844,8.582,27,14,27   c3.484,0,5.549-0.728,6.204-1h25.278c2.385,0,4.789-0.184,7.146-0.546L55,25.089V43z M14,25c-3.439,0-6.451-2.736-7.658-4   c1.207-1.264,4.219-4,7.658-4c2.545,0,4.206,0.424,5,0.688v6.623C18.203,24.576,16.543,25,14,25z M59.871,22.316l-7.547,1.161   C50.068,23.824,47.766,24,45.482,24H21v-6h24.482c2.283,0,4.586,0.176,6.842,0.523l7.547,1.161C60.525,19.785,61,20.338,61,21   S60.525,22.215,59.871,22.316z"></path><rect x="51" y="39" width="2" height="2"></rect><rect x="51" y="35" width="2" height="2"></rect><rect x="47" y="39" width="2" height="2"></rect><rect x="43" y="39" width="2" height="2"></rect><rect x="47" y="35" width="2" height="2"></rect><rect x="51" y="31" width="2" height="2"></rect></g></g><g id="SvgjsG1246" featurekey="nameFeature-0" transform="matrix(5.9335445903123585,0,0,5.9335445903123585,-7.120252376641014,47.37342123132639)" fill="url(#SvgjsLinearGradient1252)"><path d="M28.32 27.48 c0 6.56 -5.04 12.84 -12.84 12.84 c-8.16 0 -14.28 -5.92 -14.28 -14.04 s6.36 -14.04 14.16 -14.04 c4.56 0 8.28 1.72 10.8 4.8 l-1.56 1.32 c-2.24 -2.64 -5.48 -4.04 -9.24 -4.04 c-6.76 0 -12.04 5.08 -12.04 11.96 s5.04 12.04 12.16 12.04 c6.12 0 10.44 -4.6 10.76 -10.12 l-10.4 0 l0 -1.96 l12.48 0 l0 1.24 z M49.64 40 l0 -12.68 l-16.04 0 l0 12.68 l-2.12 0 l0 -27.4 l2.12 0 l0 12.76 l16.04 0 l0 -12.76 l2.12 0 l0 27.4 l-2.12 0 z"></path>
    </g>
</svg>
